{"title":"Space Cowboys(2000)MP-4[DaScubaDude]","uid":12352410,"size":1306310995,"categoryP":"video","categoryS":"movies","magnet":"?xt=urn:btih:dcdde5ecb7dfc7c5deb460d23a4d70b534ac3b5a&amp;dn=Space+Cowboys%282000%29MP-4%5BDaScubaDude%5D&amp;tr=udp%3A%2F%2Ftracker.openbittorrent.com%3A80&amp;tr=udp%3A%2F%2Fopen.demonii.com%3A1337&amp;tr=udp%3A%2F%2Ftracker.coppersurfer.tk%3A6969&amp;tr=udp%3A%2F%2Fexodus.desync.com%3A6969","seeders":0,"leechers":0,"uploader":"dascuba","files":1,"time":1441441994,"description":"Space Cowboys (2000)\nPG-13  |  130 min  |  Action, Adventure, Thriller  |  4 August 2000 (USA)\n6.4 Your rating:   -/10   Ratings: 6.4/10 from 56,775 users   Metascore: 73/100 \nReviews: 325 user | 169 critic | 36 from Metacritic.com\nWhen a retired engineer is called upon to rescue a failing satellite, he insists that his equally old teammates accompany him into space.\n\nDirector: Clint Eastwood\nWriters: Ken Kaufman, Howard Klausner\nStars: Clint Eastwood, Tommy Lee Jones, Donald Sutherland \n\nGeneral\nComplete name                         : C:Space CowboysSPACE_COWBOYS_Title1.mp4\nFormat                                   : MPEG-4\nFormat profile                           : Base Media\nCodec ID                                 : isom\nFile size                                : 1.22 GiB\nDuration                                 : 2h 10mn\nOverall bit rate                         : 1 336 Kbps\nMovie name                               : SPACE_COWBOYS\nGenre                                    : Comedy_Drama\nWriting application                      : Lavf54.6.100\n\nVideo\nID                                       : 1\nFormat                                   : AVC\nFormat/Info                              : Advanced Video Codec\nFormat profile                           : Baseline@L3\nFormat settings, CABAC                   : No\nFormat settings, ReFrames                : 6 frames\nFormat settings, GOP                     : M=1, N=60\nCodec ID                                 : avc1\nCodec ID/Info                            : Advanced Video Coding\nDuration                                 : 2h 10mn\nBit rate                                 : 1 202 Kbps\nWidth                                    : 1 280 pixels\nHeight                                   : 720 pixels\nDisplay aspect ratio                     : 16:9\nOriginal display aspect ratio            : 16:9\nFrame rate mode                          : Constant\nFrame rate                               : 29.970 fps\nColor space                              : YUV\nChroma subsampling                       : 4:2:0\nBit depth                                : 8 bits\nScan type                                : Progressive\nBits/(Pixel*Frame)                       : 0.044\nStream size                              : 1.09 GiB (90%)\n\nAudio\nID                                       : 2\nFormat                                   : AAC\nFormat/Info                              : Advanced Audio Codec\nFormat profile                           : LC\nCodec ID                                 : 40\nDuration                                 : 2h 10mn\nBit rate mode                            : Constant\nBit rate                                 : 128 Kbps\nChannel(s)                               : 2 channels\nChannel positions                        : Front: L R\nSampling rate                            : 44.1 KHz\nCompression mode                         : Lossy\nStream size                              : 119 MiB (10%)","torrent":{"xt":"urn:btih:dcdde5ecb7dfc7c5deb460d23a4d70b534ac3b5a","amp;dn":"Space+Cowboys%282000%29MP-4%5BDaScubaDude%5D","amp;tr":["udp%3A%2F%2Ftracker.openbittorrent.com%3A80","udp%3A%2F%2Fopen.demonii.com%3A1337","udp%3A%2F%2Ftracker.coppersurfer.tk%3A6969","udp%3A%2F%2Fexodus.desync.com%3A6969"],"infoHash":"dcdde5ecb7dfc7c5deb460d23a4d70b534ac3b5a","infoHashBuffer":{"type":"Buffer","data":[220,221,229,236,183,223,199,197,222,180,96,210,58,77,112,181,52,172,59,90]},"announce":[],"urlList":[]}}